<?xml version="1.0" encoding="UTF-8" standalone="no"?>
<!DOCTYPE svg PUBLIC "-//W3C//DTD SVG 1.1//EN" "http://www.w3.org/Graphics/SVG/1.1/DTD/svg11.dtd">
<svg width="100%" height="100%" viewBox="0 0 662 662" version="1.1" xmlns="http://www.w3.org/2000/svg" xmlns:xlink="http://www.w3.org/1999/xlink" xml:space="preserve" xmlns:serif="http://www.serif.com/" style="fill-rule:evenodd;clip-rule:evenodd;stroke-linejoin:round;stroke-miterlimit:2;">
    <g transform="matrix(1,0,0,1,-260.004,-259.843)">
        <g transform="matrix(0.820254,0,0,0.820254,126.373,-401.782)">
            <g transform="matrix(1.21913,0,0,1.21913,-154.066,489.826)">
                <path d="M591.086,259.843C660.362,260.008 729.898,282.637 785.971,323.803C853.502,373.381 901.249,449.048 916.091,532.042C929.343,606.15 916.496,684.82 879.876,750.761C843.216,816.774 783.432,869.645 713.17,897.747C622.413,934.045 516.076,927.489 430.341,879.876C347.999,834.148 286.591,751.927 266.986,659.181C249.087,574.507 265.948,482.689 313.598,409.848C369.244,324.785 464.777,267.48 568.273,260.583C575.858,260.077 583.449,259.837 591.086,259.843ZM590.082,301.51C529.335,301.652 468.796,321.412 419.789,357.39C360.658,400.801 318.881,466.851 305.948,539.822C294.504,604.399 305.684,672.759 337.441,730.15C369.385,787.879 421.653,834.251 482.998,858.896C550.635,886.069 628.754,886.269 696.469,859.547C771.06,830.112 832.171,768.481 860.822,693.181C887.203,623.845 885.612,544.544 856.019,476.098C823.49,400.859 757.837,340.52 678.579,315.172C650.78,306.282 621.623,301.724 592.424,301.515C591.643,301.511 590.863,301.509 590.082,301.51ZM661.438,592.109C614.456,600.478 578.74,641.573 578.74,690.945C578.74,720.123 591.214,746.41 611.116,764.76C600.618,766.702 589.797,767.717 578.74,767.717C480.96,767.717 401.575,688.331 401.575,590.551C401.575,492.771 480.96,413.386 578.74,413.386C589.797,413.386 600.618,414.401 611.116,416.343C591.214,434.692 578.74,460.98 578.74,490.157C578.74,539.529 614.456,580.624 661.438,588.993C662.265,557.119 688.4,531.496 720.472,531.496C753.066,531.496 779.528,557.958 779.528,590.551C779.528,623.145 753.066,649.606 720.472,649.606C688.4,649.606 662.265,623.984 661.438,592.109Z"/>
            </g>
        </g>
    </g>
</svg>
