<?xml version="1.0" encoding="UTF-8" standalone="no"?>
<!DOCTYPE svg PUBLIC "-//W3C//DTD SVG 1.1//EN" "http://www.w3.org/Graphics/SVG/1.1/DTD/svg11.dtd">
<svg width="100%" height="100%" viewBox="0 0 662 662" version="1.1" xmlns="http://www.w3.org/2000/svg" xmlns:xlink="http://www.w3.org/1999/xlink" xml:space="preserve" xmlns:serif="http://www.serif.com/" style="fill-rule:evenodd;clip-rule:evenodd;stroke-linejoin:round;stroke-miterlimit:2;">
    <g transform="matrix(1,0,0,1,-260.004,-259.843)">
        <g transform="matrix(0.683702,0,0,0.683702,-151.897,-144.339)">
            <g transform="matrix(1.46263,0,0,1.46263,222.169,211.113)">
                <path d="M591.086,259.843C660.362,260.008 729.898,282.637 785.971,323.803C853.502,373.381 901.249,449.048 916.091,532.042C929.343,606.15 916.496,684.82 879.876,750.761C843.216,816.774 783.432,869.645 713.17,897.747C622.413,934.045 516.076,927.489 430.341,879.876C347.999,834.148 286.591,751.927 266.986,659.181C249.087,574.507 265.948,482.689 313.598,409.848C369.244,324.785 464.777,267.48 568.273,260.583C575.858,260.077 583.449,259.837 591.086,259.843ZM590.082,301.51C529.335,301.652 468.796,321.412 419.789,357.39C360.658,400.801 318.881,466.851 305.948,539.822C294.504,604.399 305.684,672.759 337.441,730.15C369.385,787.879 421.653,834.251 482.998,858.896C550.635,886.069 628.754,886.269 696.469,859.547C771.06,830.112 832.171,768.481 860.822,693.181C887.203,623.845 885.612,544.544 856.019,476.098C823.49,400.859 757.837,340.52 678.579,315.172C650.78,306.282 621.623,301.724 592.424,301.515C591.643,301.511 590.863,301.509 590.082,301.51ZM476.951,726.302C438.107,693.793 413.386,644.956 413.386,590.39C413.386,492.61 492.771,413.225 590.551,413.225C688.331,413.225 767.717,492.61 767.717,590.39C767.717,644.956 742.995,693.793 704.152,726.302C673.388,700.555 633.766,685.048 590.551,685.048C547.336,685.048 507.714,700.555 476.951,726.302ZM590.551,436.17C645.96,436.17 690.945,481.155 690.945,536.563C690.945,591.972 645.96,636.957 590.551,636.957C535.142,636.957 490.157,591.972 490.157,536.563C490.157,481.155 535.142,436.17 590.551,436.17ZM590.551,453.388C623.145,453.388 649.606,479.85 649.606,512.444C649.606,545.037 623.145,571.499 590.551,571.499C557.958,571.499 531.496,545.037 531.496,512.444C531.496,479.85 557.958,453.388 590.551,453.388Z"/>
            </g>
        </g>
    </g>
</svg>
