<?xml version="1.0" encoding="UTF-8" standalone="no"?>
<!DOCTYPE svg PUBLIC "-//W3C//DTD SVG 1.1//EN" "http://www.w3.org/Graphics/SVG/1.1/DTD/svg11.dtd">
<svg width="100%" height="100%" viewBox="0 0 662 662" version="1.1" xmlns="http://www.w3.org/2000/svg" xmlns:xlink="http://www.w3.org/1999/xlink" xml:space="preserve" xmlns:serif="http://www.serif.com/" style="fill-rule:evenodd;clip-rule:evenodd;stroke-linejoin:round;stroke-miterlimit:2;">
    <g transform="matrix(1,0,0,1,-260.004,-259.843)">
        <g transform="matrix(0.335119,-0.193481,0.193481,0.335119,18.4769,534.763)">
            <g transform="matrix(2.23801,1.29212,-1.29212,2.23801,649.625,-1220.68)">
                <path d="M591.086,259.843C660.362,260.008 729.898,282.637 785.971,323.803C853.502,373.381 901.249,449.048 916.091,532.042C929.343,606.15 916.496,684.82 879.876,750.761C843.216,816.774 783.432,869.645 713.17,897.747C622.413,934.045 516.076,927.489 430.341,879.876C347.999,834.148 286.591,751.927 266.986,659.181C249.087,574.507 265.948,482.689 313.598,409.848C369.244,324.785 464.777,267.48 568.273,260.583C575.858,260.077 583.449,259.837 591.086,259.843ZM590.082,301.51C529.335,301.652 468.796,321.412 419.789,357.39C360.658,400.801 318.881,466.851 305.948,539.822C294.504,604.399 305.684,672.759 337.441,730.15C369.385,787.879 421.653,834.251 482.998,858.896C550.635,886.069 628.754,886.269 696.469,859.547C771.06,830.112 832.171,768.481 860.822,693.181C887.203,623.845 885.612,544.544 856.019,476.098C823.49,400.859 757.837,340.52 678.579,315.172C650.78,306.282 621.623,301.724 592.424,301.515C591.643,301.511 590.863,301.509 590.082,301.51ZM546.357,419.732C526.346,443.393 514.276,473.98 514.276,507.364C514.276,582.329 575.138,643.191 650.103,643.191C700.194,643.191 743.988,616.018 767.536,575.62C767.984,580.755 768.213,585.952 768.213,591.203C768.213,688.983 688.828,768.368 591.048,768.368C493.268,768.368 413.882,688.983 413.882,591.203C413.882,508.858 470.183,439.559 546.357,419.732ZM650.103,507.364C682.696,507.364 709.158,533.826 709.158,566.42C709.158,599.013 682.696,625.475 650.103,625.475C617.51,625.475 591.048,599.013 591.048,566.42C591.048,533.826 617.51,507.364 650.103,507.364Z"/>
            </g>
        </g>
    </g>
</svg>
