<?xml version="1.0" encoding="UTF-8" standalone="no"?>
<!DOCTYPE svg PUBLIC "-//W3C//DTD SVG 1.1//EN" "http://www.w3.org/Graphics/SVG/1.1/DTD/svg11.dtd">
<svg width="100%" height="100%" viewBox="0 0 662 662" version="1.1" xmlns="http://www.w3.org/2000/svg" xmlns:xlink="http://www.w3.org/1999/xlink" xml:space="preserve" xmlns:serif="http://www.serif.com/" style="fill-rule:evenodd;clip-rule:evenodd;stroke-linejoin:round;stroke-miterlimit:2;">
    <g transform="matrix(1,0,0,1,-260.004,-259.843)">
        <g transform="matrix(0.753323,0,0,0.753323,15.5614,-281.652)">
            <g transform="matrix(1.32745,0,0,1.32745,-20.657,373.879)">
                <path d="M591.086,259.843C660.362,260.008 729.898,282.637 785.971,323.803C853.502,373.381 901.249,449.048 916.091,532.042C929.343,606.15 916.496,684.82 879.876,750.761C843.216,816.774 783.432,869.645 713.17,897.747C622.413,934.045 516.076,927.489 430.341,879.876C347.999,834.148 286.591,751.927 266.986,659.181C249.087,574.507 265.948,482.689 313.598,409.848C369.244,324.785 464.777,267.48 568.273,260.583C575.858,260.077 583.449,259.837 591.086,259.843ZM590.082,301.51C529.335,301.652 468.796,321.412 419.789,357.39C360.658,400.801 318.881,466.851 305.948,539.822C294.504,604.399 305.684,672.759 337.441,730.15C369.385,787.879 421.653,834.251 482.998,858.896C550.635,886.069 628.754,886.269 696.469,859.547C771.06,830.112 832.171,768.481 860.822,693.181C887.203,623.845 885.612,544.544 856.019,476.098C823.49,400.859 757.837,340.52 678.579,315.172C650.78,306.282 621.623,301.724 592.424,301.515C591.643,301.511 590.863,301.509 590.082,301.51ZM560.78,765.221C477.154,751.047 413.386,678.187 413.386,590.551C413.386,492.771 492.771,413.386 590.551,413.386C688.331,413.386 767.717,492.771 767.717,590.551C767.717,678.187 703.949,751.047 620.322,765.221C661.214,752.524 690.945,714.368 690.945,669.323C690.945,613.914 645.96,568.929 590.551,568.929C535.142,568.929 490.157,613.914 490.157,669.323C490.157,714.368 519.888,752.524 560.78,765.221ZM590.551,585.551C623.145,585.551 649.606,612.013 649.606,644.606C649.606,677.2 623.145,703.661 590.551,703.661C557.958,703.661 531.496,677.2 531.496,644.606C531.496,612.013 557.958,585.551 590.551,585.551Z"/>
            </g>
        </g>
    </g>
</svg>
