<?xml version="1.0" encoding="UTF-8" standalone="no"?>
<!DOCTYPE svg PUBLIC "-//W3C//DTD SVG 1.1//EN" "http://www.w3.org/Graphics/SVG/1.1/DTD/svg11.dtd">
<svg width="100%" height="100%" viewBox="0 0 662 662" version="1.1" xmlns="http://www.w3.org/2000/svg" xmlns:xlink="http://www.w3.org/1999/xlink" xml:space="preserve" xmlns:serif="http://www.serif.com/" style="fill-rule:evenodd;clip-rule:evenodd;stroke-linejoin:round;stroke-miterlimit:2;">
    <g transform="matrix(1,0,0,1,-260.004,-259.843)">
        <g transform="matrix(0.385257,0,0,0.385257,-1240.19,141.694)">
            <g transform="matrix(2.59567,0,0,2.59567,3219.13,-367.791)">
                <path d="M591.086,259.843C660.362,260.008 729.898,282.637 785.971,323.803C853.502,373.381 901.249,449.048 916.091,532.042C929.343,606.15 916.496,684.82 879.876,750.761C843.216,816.774 783.432,869.645 713.17,897.747C622.413,934.045 516.076,927.489 430.341,879.876C347.999,834.148 286.591,751.927 266.986,659.181C249.087,574.507 265.948,482.689 313.598,409.848C369.244,324.785 464.777,267.48 568.273,260.583C575.858,260.077 583.449,259.837 591.086,259.843ZM590.082,301.51C529.335,301.652 468.796,321.412 419.789,357.39C360.658,400.801 318.881,466.851 305.948,539.822C294.504,604.399 305.684,672.759 337.441,730.15C369.385,787.879 421.653,834.251 482.998,858.896C550.635,886.069 628.754,886.269 696.469,859.547C771.06,830.112 832.171,768.481 860.822,693.181C887.203,623.845 885.612,544.544 856.019,476.098C823.49,400.859 757.837,340.52 678.579,315.172C650.78,306.282 621.623,301.724 592.424,301.515C591.643,301.511 590.863,301.509 590.082,301.51ZM761.626,606.547C758.233,652.59 736.978,697.273 698.853,729.264C643.325,775.857 567.499,782.533 506.379,752.353C528.172,751.715 549.91,744.014 567.891,728.926C610.337,693.31 615.882,629.934 580.266,587.488C544.649,545.042 481.273,539.498 438.828,575.114C425.083,586.647 415.207,601.092 409.346,616.793C401.739,558.774 422.985,498.199 471.093,457.831C513.549,422.206 567.872,409.917 618.414,419.596C594.878,464.824 599.32,521.718 634.11,563.18C666.264,601.498 715.899,616.578 761.626,606.547ZM688.302,573.92C655.774,571.848 631.049,543.757 633.121,511.23C635.193,478.703 663.283,453.977 695.811,456.049C728.338,458.121 753.064,486.211 750.992,518.739C748.92,551.266 720.829,575.992 688.302,573.92Z"/>
            </g>
        </g>
    </g>
</svg>
