<?xml version="1.0" encoding="UTF-8" standalone="no"?>
<!DOCTYPE svg PUBLIC "-//W3C//DTD SVG 1.1//EN" "http://www.w3.org/Graphics/SVG/1.1/DTD/svg11.dtd">
<svg width="100%" height="100%" viewBox="0 0 662 662" version="1.1" xmlns="http://www.w3.org/2000/svg" xmlns:xlink="http://www.w3.org/1999/xlink" xml:space="preserve" xmlns:serif="http://www.serif.com/" style="fill-rule:evenodd;clip-rule:evenodd;stroke-linejoin:round;stroke-miterlimit:2;">
    <g transform="matrix(1,0,0,1,-260.004,-259.843)">
        <g transform="matrix(0.850983,0,0,0.850983,28.3372,-400.032)">
            <g transform="matrix(1.17511,0,0,1.17511,-33.2994,470.083)">
                <path d="M591.086,259.843C660.362,260.008 729.898,282.637 785.971,323.803C853.502,373.381 901.249,449.048 916.091,532.042C929.343,606.15 916.496,684.82 879.876,750.761C843.216,816.774 783.432,869.645 713.17,897.747C622.413,934.045 516.076,927.489 430.341,879.876C347.999,834.148 286.591,751.927 266.986,659.181C249.087,574.507 265.948,482.689 313.598,409.848C369.244,324.785 464.777,267.48 568.273,260.583C575.858,260.077 583.449,259.837 591.086,259.843ZM590.082,301.51C529.335,301.652 468.796,321.412 419.789,357.39C360.658,400.801 318.881,466.851 305.948,539.822C294.504,604.399 305.684,672.759 337.441,730.15C369.385,787.879 421.653,834.251 482.998,858.896C550.635,886.069 628.754,886.269 696.469,859.547C771.06,830.112 832.171,768.481 860.822,693.181C887.203,623.845 885.612,544.544 856.019,476.098C823.49,400.859 757.837,340.52 678.579,315.172C650.78,306.282 621.623,301.724 592.424,301.515C591.643,301.511 590.863,301.509 590.082,301.51ZM532.661,678.82C514.402,653.745 484.818,637.435 451.454,637.435C450.81,637.435 450.168,637.441 449.527,637.454C438.322,614.218 432.041,588.168 432.041,560.664C432.041,474.406 493.818,402.464 575.503,386.706C557.272,409.827 546.388,439.006 546.388,470.706C546.388,545.671 607.25,606.533 682.215,606.533C724.012,606.533 761.426,587.613 786.35,557.876C786.364,558.804 786.371,559.733 786.371,560.664C786.371,658.444 706.986,737.829 609.206,737.829C604.106,737.829 599.056,737.613 594.065,737.19C594.068,737.402 594.069,737.616 594.069,737.829C594.069,770.422 567.607,796.884 535.014,796.884C502.42,796.884 475.959,770.422 475.959,737.829C475.959,706.024 501.157,680.057 532.661,678.82Z"/>
            </g>
        </g>
    </g>
</svg>
