<?xml version="1.0" encoding="UTF-8" standalone="no"?>
<!DOCTYPE svg PUBLIC "-//W3C//DTD SVG 1.1//EN" "http://www.w3.org/Graphics/SVG/1.1/DTD/svg11.dtd">
<svg width="100%" height="100%" viewBox="0 0 662 662" version="1.1" xmlns="http://www.w3.org/2000/svg" xmlns:xlink="http://www.w3.org/1999/xlink" xml:space="preserve" xmlns:serif="http://www.serif.com/" style="fill-rule:evenodd;clip-rule:evenodd;stroke-linejoin:round;stroke-miterlimit:2;">
    <g transform="matrix(1,0,0,1,-260.004,-259.843)">
        <g transform="matrix(1,0,0,1,-3953.94,106.963)">
            <g transform="matrix(1,0,0,1,3953.94,-106.963)">
                <path d="M591.086,259.843C660.362,260.008 729.898,282.637 785.971,323.803C853.502,373.381 901.249,449.048 916.091,532.042C929.343,606.15 916.496,684.82 879.876,750.761C843.216,816.774 783.432,869.645 713.17,897.747C622.413,934.045 516.076,927.489 430.341,879.876C347.999,834.148 286.591,751.927 266.986,659.181C249.087,574.507 265.948,482.689 313.598,409.848C369.244,324.785 464.777,267.48 568.273,260.583C575.858,260.077 583.449,259.837 591.086,259.843ZM590.082,301.51C529.335,301.652 468.796,321.412 419.789,357.39C360.658,400.801 318.881,466.851 305.948,539.822C294.504,604.399 305.684,672.759 337.441,730.15C369.385,787.879 421.653,834.251 482.998,858.896C550.635,886.069 628.754,886.269 696.469,859.547C771.06,830.112 832.171,768.481 860.822,693.181C887.203,623.845 885.612,544.544 856.019,476.098C823.49,400.859 757.837,340.52 678.579,315.172C650.78,306.282 621.623,301.724 592.424,301.515C591.643,301.511 590.863,301.509 590.082,301.51ZM597.575,650.22C630.169,650.22 656.63,676.682 656.63,709.275C656.63,741.869 630.169,768.33 597.575,768.33C564.982,768.33 538.52,741.869 538.52,709.275C538.52,676.682 564.982,650.22 597.575,650.22ZM546.623,762.796C470.134,743.185 413.528,673.734 413.528,591.165C413.528,493.385 492.913,414 590.693,414C688.473,414 767.858,493.385 767.858,591.165C767.858,596.247 767.644,601.279 767.223,606.253C743.686,565.815 699.869,538.608 649.748,538.608C574.783,538.608 513.921,599.47 513.921,674.435C513.921,708.163 526.241,739.036 546.623,762.796Z"/>
            </g>
        </g>
    </g>
</svg>
