<?xml version="1.0" encoding="UTF-8" standalone="no"?>
<!DOCTYPE svg PUBLIC "-//W3C//DTD SVG 1.1//EN" "http://www.w3.org/Graphics/SVG/1.1/DTD/svg11.dtd">
<svg width="100%" height="100%" viewBox="0 0 662 662" version="1.1" xmlns="http://www.w3.org/2000/svg" xmlns:xlink="http://www.w3.org/1999/xlink" xml:space="preserve" xmlns:serif="http://www.serif.com/" style="fill-rule:evenodd;clip-rule:evenodd;stroke-linejoin:round;stroke-miterlimit:2;">
    <g transform="matrix(1,0,0,1,-260.004,-259.843)">
        <g transform="matrix(0.425532,0,0,0.425532,59.2334,202.173)">
            <g transform="matrix(2.35,0,0,2.35,-139.198,-475.106)">
                <path d="M591.086,259.843C660.362,260.008 729.898,282.637 785.971,323.803C853.502,373.381 901.249,449.048 916.091,532.042C929.343,606.15 916.496,684.82 879.876,750.761C843.216,816.774 783.432,869.645 713.17,897.747C622.413,934.045 516.076,927.489 430.341,879.876C347.999,834.148 286.591,751.927 266.986,659.181C249.087,574.507 265.948,482.689 313.598,409.848C369.244,324.785 464.777,267.48 568.273,260.583C575.858,260.077 583.449,259.837 591.086,259.843ZM590.082,301.51C529.335,301.652 468.796,321.412 419.789,357.39C360.658,400.801 318.881,466.851 305.948,539.822C294.504,604.399 305.684,672.759 337.441,730.15C369.385,787.879 421.653,834.251 482.998,858.896C550.635,886.069 628.754,886.269 696.469,859.547C771.06,830.112 832.171,768.481 860.822,693.181C887.203,623.845 885.612,544.544 856.019,476.098C823.49,400.859 757.837,340.52 678.579,315.172C650.78,306.282 621.623,301.724 592.424,301.515C591.643,301.511 590.863,301.509 590.082,301.51ZM590.551,656.463C623.145,656.463 649.606,682.925 649.606,715.519C649.606,748.112 623.145,774.574 590.551,774.574C557.958,774.574 531.496,748.112 531.496,715.519C531.496,682.925 557.958,656.463 590.551,656.463ZM724.901,458.657C751.582,489.673 767.717,530.017 767.717,574.099C767.717,635.339 736.577,689.363 689.282,721.188C680.681,674.492 639.72,639.069 590.551,639.069C541.382,639.069 500.422,674.492 491.82,721.188C444.525,689.363 413.386,635.339 413.386,574.099C413.386,530.017 429.521,489.673 456.202,458.657C455.24,465.172 454.742,471.836 454.742,478.616C454.742,553.571 515.596,614.425 590.551,614.425C665.506,614.425 726.36,553.571 726.36,478.616C726.36,471.836 725.862,465.172 724.901,458.657Z"/>
            </g>
        </g>
    </g>
</svg>
