<?xml version="1.0" encoding="UTF-8" standalone="no"?>
<!DOCTYPE svg PUBLIC "-//W3C//DTD SVG 1.1//EN" "http://www.w3.org/Graphics/SVG/1.1/DTD/svg11.dtd">
<svg width="100%" height="100%" viewBox="0 0 662 662" version="1.1" xmlns="http://www.w3.org/2000/svg" xmlns:xlink="http://www.w3.org/1999/xlink" xml:space="preserve" xmlns:serif="http://www.serif.com/" style="fill-rule:evenodd;clip-rule:evenodd;stroke-linejoin:round;stroke-miterlimit:2;">
    <g transform="matrix(1,0,0,1,-260.004,-259.843)">
        <g transform="matrix(0.945414,-0.325871,0.325871,0.945414,-3444.9,962.712)">
            <g transform="matrix(0.945414,0.325871,-0.325871,0.945414,3570.58,212.434)">
                <path d="M591.086,259.843C660.362,260.008 729.898,282.637 785.971,323.803C853.502,373.381 901.249,449.048 916.091,532.042C929.343,606.15 916.496,684.82 879.876,750.761C843.216,816.774 783.432,869.645 713.17,897.747C622.413,934.045 516.076,927.489 430.341,879.876C347.999,834.148 286.591,751.927 266.986,659.181C249.087,574.507 265.948,482.689 313.598,409.848C369.244,324.785 464.777,267.48 568.273,260.583C575.858,260.077 583.449,259.837 591.086,259.843ZM590.082,301.51C529.335,301.652 468.796,321.412 419.789,357.39C360.658,400.801 318.881,466.851 305.948,539.822C294.504,604.399 305.684,672.759 337.441,730.15C369.385,787.879 421.653,834.251 482.998,858.896C550.635,886.069 628.754,886.269 696.469,859.547C771.06,830.112 832.171,768.481 860.822,693.181C887.203,623.845 885.612,544.544 856.019,476.098C823.49,400.859 757.837,340.52 678.579,315.172C650.78,306.282 621.623,301.724 592.424,301.515C591.643,301.511 590.863,301.509 590.082,301.51ZM641.795,523.96C673.314,514.438 701.136,496.364 722.558,472.441C750.635,503.794 767.717,545.194 767.717,590.551C767.717,688.331 688.331,767.717 590.551,767.717C492.771,767.717 413.386,688.331 413.386,590.551C413.386,545.194 430.468,503.794 458.544,472.441C480.025,496.429 507.941,514.537 539.567,524.037C529.402,531.76 520.962,541.702 515.253,553.183C503.894,576.027 503.744,604.063 514.804,627.002C528.684,655.791 559.27,674.606 590.551,674.606C595.877,674.606 601.203,674.105 606.434,673.101C641.243,666.424 668.996,636.503 673.791,602.274C677.486,575.898 667.777,548.06 648.539,529.717C646.397,527.675 644.144,525.754 641.795,523.96ZM590.933,531.497C605.593,531.637 620.06,537.353 630.771,547.325C644.562,560.163 651.574,579.804 649.083,598.437C645.827,622.796 625.826,643.926 601.724,648.549C575.439,653.591 548.218,639.099 537.169,615.821C529.329,599.304 529.785,579.153 538.291,563.042C548.215,544.243 568.836,531.701 590.17,531.497L590.933,531.497Z"/>
            </g>
        </g>
    </g>
</svg>
