<?xml version="1.0" encoding="UTF-8" standalone="no"?>
<!DOCTYPE svg PUBLIC "-//W3C//DTD SVG 1.1//EN" "http://www.w3.org/Graphics/SVG/1.1/DTD/svg11.dtd">
<svg width="100%" height="100%" viewBox="0 0 662 662" version="1.1" xmlns="http://www.w3.org/2000/svg" xmlns:xlink="http://www.w3.org/1999/xlink" xml:space="preserve" xmlns:serif="http://www.serif.com/" style="fill-rule:evenodd;clip-rule:evenodd;stroke-linejoin:round;stroke-miterlimit:2;">
    <g transform="matrix(1,0,0,1,-260.004,-259.843)">
        <g transform="matrix(0.945414,-0.325871,0.325871,0.945414,-3444.9,962.712)">
            <g transform="matrix(0.945414,0.325871,-0.325871,0.945414,3570.58,212.434)">
                <path d="M591.086,259.843C660.362,260.008 729.898,282.637 785.971,323.803C853.502,373.381 901.249,449.048 916.091,532.042C929.343,606.15 916.496,684.82 879.876,750.761C843.216,816.774 783.432,869.645 713.17,897.747C622.413,934.045 516.076,927.489 430.341,879.876C347.999,834.148 286.591,751.927 266.986,659.181C249.087,574.507 265.948,482.689 313.598,409.848C369.244,324.785 464.777,267.48 568.273,260.583C575.858,260.077 583.449,259.837 591.086,259.843ZM590.082,301.51C529.335,301.652 468.796,321.412 419.789,357.39C360.658,400.801 318.881,466.851 305.948,539.822C294.504,604.399 305.684,672.759 337.441,730.15C369.385,787.879 421.653,834.251 482.998,858.896C550.635,886.069 628.754,886.269 696.469,859.547C771.06,830.112 832.171,768.481 860.822,693.181C887.203,623.845 885.612,544.544 856.019,476.098C823.49,400.859 757.837,340.52 678.579,315.172C650.78,306.282 621.623,301.724 592.424,301.515C591.643,301.511 590.863,301.509 590.082,301.51ZM590.551,737.912C623.145,737.912 649.606,711.45 649.606,678.857C649.606,646.263 623.145,619.802 590.551,619.802C557.958,619.802 531.496,646.263 531.496,678.857C531.496,711.45 557.958,737.912 590.551,737.912ZM422.87,647.846C416.723,629.871 413.386,610.598 413.386,590.551C413.386,492.771 492.771,413.386 590.551,413.386C688.331,413.386 767.717,492.771 767.717,590.551C767.717,610.484 764.418,629.652 758.336,647.54C748.086,645.063 737.384,643.751 726.378,643.751C703.934,643.751 682.754,649.207 664.093,658.864C680.752,640.94 690.945,616.927 690.945,590.551C690.945,535.142 645.96,490.157 590.551,490.157C535.142,490.157 490.157,535.142 490.157,590.551C490.157,617.245 500.598,641.52 517.616,659.51C498.808,649.657 477.412,644.082 454.724,644.082C443.756,644.082 433.089,645.385 422.87,647.846Z"/>
            </g>
        </g>
    </g>
</svg>
