<?xml version="1.0" encoding="UTF-8" standalone="no"?>
<!DOCTYPE svg PUBLIC "-//W3C//DTD SVG 1.1//EN" "http://www.w3.org/Graphics/SVG/1.1/DTD/svg11.dtd">
<svg width="100%" height="100%" viewBox="0 0 662 662" version="1.1" xmlns="http://www.w3.org/2000/svg" xmlns:xlink="http://www.w3.org/1999/xlink" xml:space="preserve" xmlns:serif="http://www.serif.com/" style="fill-rule:evenodd;clip-rule:evenodd;stroke-linejoin:round;stroke-miterlimit:2;">
    <g transform="matrix(1,0,0,1,-260.004,-259.843)">
        <g transform="matrix(0.481917,-2.34422e-18,2.65826e-15,0.481917,-93.1737,282.234)">
            <g transform="matrix(2.07505,1.00938e-17,-1.1446e-14,2.07505,193.34,-585.648)">
                <path d="M591.086,259.843C660.362,260.008 729.898,282.637 785.971,323.803C853.502,373.381 901.249,449.048 916.091,532.042C929.343,606.15 916.496,684.82 879.876,750.761C843.216,816.774 783.432,869.645 713.17,897.747C622.413,934.045 516.076,927.489 430.341,879.876C347.999,834.148 286.591,751.927 266.986,659.181C249.087,574.507 265.948,482.689 313.598,409.848C369.244,324.785 464.777,267.48 568.273,260.583C575.858,260.077 583.449,259.837 591.086,259.843ZM590.082,301.51C529.335,301.652 468.796,321.412 419.789,357.39C360.658,400.801 318.881,466.851 305.948,539.822C294.504,604.399 305.684,672.759 337.441,730.15C369.385,787.879 421.653,834.251 482.998,858.896C550.635,886.069 628.754,886.269 696.469,859.547C771.06,830.112 832.171,768.481 860.822,693.181C887.203,623.845 885.612,544.544 856.019,476.098C823.49,400.859 757.837,340.52 678.579,315.172C650.78,306.282 621.623,301.724 592.424,301.515C591.643,301.511 590.863,301.509 590.082,301.51ZM460.159,670.02L460.157,670.551C460.157,691.428 466.544,710.826 477.468,726.894C438.327,694.386 413.386,645.358 413.386,590.551C413.386,492.771 492.771,413.386 590.551,413.386C653.525,413.386 708.869,446.313 740.29,495.876C730.62,494.238 720.684,493.386 710.551,493.386C686.712,493.386 663.965,498.105 643.197,506.659C692.048,527.241 726.378,575.588 726.378,631.89C726.378,706.855 665.516,767.717 590.551,767.717C589.468,767.717 588.388,767.704 587.311,767.678C586.604,767.704 585.893,767.717 585.18,767.717C552.586,767.717 526.125,741.255 526.125,708.661C526.125,676.068 552.586,649.606 585.18,649.606C617.773,649.606 644.235,676.068 644.235,708.661C644.235,717.501 642.288,725.89 638.801,733.422C652.652,716.211 660.945,694.342 660.945,670.551C660.945,616.478 618.103,572.333 564.54,570.236L564.191,570.223L563.943,570.214L563.65,570.205L563.314,570.195L563.086,570.189L562.526,570.177L562.377,570.174L561.933,570.167L561.736,570.165L561.319,570.161L561.139,570.159L560.551,570.157L559.903,570.16L559.688,570.162L559.257,570.166L558.998,570.17L558.611,570.176L558.334,570.182L557.966,570.19L557.679,570.198L557.322,570.209L557.03,570.219L556.679,570.231L556.383,570.243L556.037,570.257L555.738,570.272L555.396,570.288L555.095,570.304L554.757,570.322L554.454,570.34L554.118,570.361L553.814,570.381L553.48,570.403L553.176,570.425L552.844,570.45L552.539,570.474L552.208,570.5L551.903,570.526L551.574,570.554L551.268,570.582L550.941,570.612L550.635,570.643L550.309,570.675L550.003,570.707L549.678,570.741L549.372,570.775L549.048,570.811L548.742,570.847L548.42,570.884L548.113,570.922L547.792,570.962L547.486,571.002L547.166,571.044L546.86,571.086L546.541,571.129L546.236,571.173L545.917,571.218L545.612,571.264L545.295,571.312L544.99,571.359L544.673,571.408L544.369,571.458L544.053,571.509L543.749,571.56L543.435,571.614L543.131,571.667L542.817,571.722L542.514,571.777L542.201,571.834L541.898,571.891L541.586,571.95L541.283,572.008L540.973,572.069L540.67,572.13L540.36,572.192L540.059,572.255L539.75,572.319L539.448,572.384L539.14,572.45L538.839,572.516L538.532,572.584L538.232,572.652L537.925,572.722L537.625,572.792L537.32,572.864L537.02,572.936L536.716,573.009L536.417,573.083L536.113,573.158L535.815,573.234L535.512,573.311L535.214,573.388L534.913,573.467L534.615,573.546L534.314,573.627L534.018,573.708L533.718,573.79L533.422,573.873L533.122,573.957L532.827,574.042L532.529,574.127L532.234,574.214L531.936,574.301L531.642,574.39L531.346,574.479L531.052,574.569L530.756,574.66L530.463,574.752L530.169,574.845L529.876,574.939L529.583,575.033L529.291,575.128L528.998,575.225L528.707,575.322L528.415,575.42L528.124,575.519L527.834,575.618L527.544,575.719L527.254,575.82L526.965,575.923L526.676,576.026L526.387,576.13L526.099,576.235L525.811,576.341L525.525,576.447L525.237,576.555L524.951,576.663L524.664,576.772L524.38,576.882L524.093,576.993L523.81,577.104L523.524,577.218L523.242,577.33L522.957,577.445L522.675,577.559L522.391,577.676L522.111,577.792L521.827,577.91L521.548,578.028L521.264,578.148L520.986,578.267L520.704,578.389L520.427,578.509L520.145,578.633L519.869,578.755L519.588,578.881L519.313,579.004L519.032,579.132L518.759,579.256L518.479,579.386L518.206,579.512L517.927,579.643L517.656,579.771L517.377,579.904L517.107,580.033L516.829,580.167L516.56,580.298L516.283,580.434L516.015,580.567L515.739,580.705L515.472,580.838L515.196,580.978L514.93,581.113L514.656,581.255L514.391,581.391L514.117,581.534L513.854,581.672L513.58,581.817L513.318,581.957L513.045,582.103L512.784,582.244L512.512,582.393L512.252,582.535L511.981,582.685L511.723,582.828L511.452,582.98L511.195,583.125L510.925,583.279L510.669,583.425L510.4,583.58L510.145,583.728L509.876,583.885L509.623,584.034L509.355,584.193L509.103,584.343L508.836,584.503L508.585,584.655L508.319,584.817L508.07,584.97L507.804,585.134L507.556,585.288L507.291,585.454L507.044,585.609L506.78,585.777L506.534,585.933L506.271,586.102L506.027,586.26L505.764,586.431L505.521,586.59L505.26,586.763L505.018,586.923L504.757,587.098L504.517,587.259L504.257,587.435L504.018,587.598L503.758,587.776L503.521,587.939L503.262,588.119L503.026,588.284L502.768,588.466L502.533,588.631L502.276,588.815L502.043,588.982L501.787,589.167L501.555,589.335L501.299,589.522L501.069,589.691L500.814,589.88L500.585,590.05L500.331,590.24L500.104,590.412L499.85,590.604L499.624,590.776L499.372,590.97L499.147,591.143L498.895,591.339L498.672,591.513L498.421,591.711L498.2,591.886L497.95,592.086L497.73,592.262L497.48,592.463L497.262,592.64L497.013,592.843L496.796,593.021L496.548,593.226L496.333,593.405L496.086,593.612L495.872,593.792L495.626,594L495.413,594.181L495.168,594.391L494.957,594.573L494.713,594.785L494.504,594.967L494.26,595.181L494.052,595.364L493.809,595.58L493.603,595.764L493.361,595.982L493.157,596.167L492.915,596.386L492.712,596.572L492.472,596.793L492.271,596.98L492.031,597.203L491.831,597.39L491.593,597.615L491.395,597.803L491.157,598.03L490.96,598.218L490.724,598.447L490.529,598.636L490.293,598.867L490.099,599.057L489.864,599.29L489.672,599.48L489.438,599.715L489.248,599.906L489.015,600.142L488.826,600.334L488.594,600.572L488.407,600.765L488.176,601.005L487.991,601.198L487.76,601.44L487.577,601.633L487.347,601.877L487.165,602.071L486.937,602.317L486.756,602.512L486.529,602.76L486.35,602.955L486.123,603.205L485.947,603.4L485.721,603.652L485.546,603.848L485.321,604.102L485.147,604.298L484.923,604.554L484.752,604.751L484.529,605.008L484.359,605.206L484.137,605.465L483.968,605.663L483.747,605.925L483.581,606.123L483.361,606.386L483.196,606.585L482.977,606.85L482.814,607.049L482.596,607.317L482.435,607.515L482.217,607.785L482.058,607.984L481.842,608.256L481.684,608.456L481.469,608.729L481.313,608.929L481.099,609.205L480.945,609.405L480.731,609.683L480.579,609.883L480.367,610.163L480.216,610.363L480.005,610.645L479.856,610.845L479.646,611.13L479.499,611.33L479.29,611.616L479.145,611.817L478.937,612.105L478.794,612.306L478.587,612.596L478.445,612.797L478.24,613.09L478.1,613.29L477.895,613.585L477.757,613.786L477.553,614.083L477.417,614.283L477.215,614.583L477.08,614.783L476.879,615.085L476.746,615.285L476.546,615.589L476.415,615.789L476.216,616.095L476.087,616.295L475.889,616.603L475.762,616.803L475.566,617.113L475.44,617.313L475.245,617.626L475.121,617.825L474.927,618.14L474.805,618.339L474.612,618.657L474.492,618.856L474.3,619.175L474.182,619.374L473.991,619.696L473.875,619.894L473.685,620.218L473.571,620.416L473.383,620.743L473.27,620.94L473.083,621.27L472.972,621.467L472.786,621.798L472.677,621.995L472.493,622.329L472.386,622.525L472.203,622.861L472.097,623.057L471.915,623.395L471.812,623.591L471.631,623.932L471.529,624.126L471.35,624.47L471.25,624.664L471.073,625.01L470.974,625.203L470.798,625.552L470.702,625.745L470.527,626.096L470.432,626.288L470.259,626.642L470.166,626.833L469.994,627.189L469.902,627.38L469.732,627.739L469.642,627.928L469.473,628.29L469.386,628.479L469.218,628.843L469.132,629.031L468.966,629.398L468.882,629.585L468.717,629.954L468.635,630.141L468.472,630.513L468.391,630.698L468.23,631.073L468.151,631.257L467.991,631.635L467.914,631.818L467.755,632.198L467.68,632.381L467.523,632.764L467.45,632.945L467.295,633.331L467.223,633.511L467.069,633.9L466.999,634.078L466.847,634.47L466.779,634.648L466.628,635.042L466.562,635.219L466.413,635.616L466.348,635.791L466.201,636.192L466.138,636.365L465.993,636.769L465.931,636.941L465.788,637.347L465.728,637.518L465.586,637.928L465.528,638.097L465.388,638.51L465.332,638.678L465.193,639.093L465.139,639.26L465.002,639.678L464.949,639.843L464.815,640.265L464.763,640.428L464.63,640.853L464.581,641.015L464.45,641.443L464.402,641.603L464.273,642.034L464.226,642.192L464.099,642.627L464.054,642.783L463.929,643.221L463.886,643.376L463.763,643.817L463.721,643.97L463.6,644.414L463.56,644.565L463.441,645.013L463.402,645.161L463.285,645.613L463.248,645.76L463.133,646.215L463.097,646.359L462.985,646.818L462.95,646.96L462.84,647.422L462.807,647.562L462.699,648.028L462.667,648.166L462.561,648.635L462.531,648.771L462.428,649.244L462.399,649.377L462.297,649.854L462.27,649.984L462.171,650.465L462.145,650.593L462.049,651.078L462.024,651.203L461.93,651.692L461.907,651.814L461.814,652.307L461.793,652.427L461.703,652.924L461.683,653.041L461.595,653.542L461.576,653.656L461.492,654.161L461.474,654.272L461.392,654.782L461.375,654.889L461.295,655.403L461.28,655.508L461.203,656.026L461.188,656.127L461.114,656.65L461.101,656.748L461.029,657.276L461.017,657.37L460.949,657.902L460.937,657.993L460.871,658.53L460.861,658.618L460.798,659.159L460.789,659.243L460.729,659.789L460.721,659.869L460.664,660.421L460.656,660.496L460.602,661.053L460.596,661.125L460.545,661.687L460.539,661.754L460.491,662.321L460.486,662.385L460.441,662.957L460.437,663.016L460.396,663.594L460.392,663.648L460.354,664.232L460.351,664.282L460.316,664.871L460.314,664.916L460.282,665.511L460.28,665.551L460.253,666.152L460.251,666.187L460.227,666.795L460.226,666.824L460.205,667.438L460.205,667.461L460.188,668.082L460.187,668.1L460.174,668.727L460.174,668.739L460.165,669.373L460.165,669.379L460.159,670.02Z"/>
            </g>
        </g>
    </g>
</svg>
