<?xml version="1.0" encoding="UTF-8" standalone="no"?>
<!DOCTYPE svg PUBLIC "-//W3C//DTD SVG 1.1//EN" "http://www.w3.org/Graphics/SVG/1.1/DTD/svg11.dtd">
<svg width="100%" height="100%" viewBox="0 0 662 662" version="1.1" xmlns="http://www.w3.org/2000/svg" xmlns:xlink="http://www.w3.org/1999/xlink" xml:space="preserve" xmlns:serif="http://www.serif.com/" style="fill-rule:evenodd;clip-rule:evenodd;stroke-linejoin:round;stroke-miterlimit:2;">
    <g transform="matrix(1,0,0,1,-260.004,-259.843)">
        <g transform="matrix(0.481917,-2.34422e-18,2.65826e-15,0.481917,-93.1737,282.234)">
            <g transform="matrix(2.07505,1.00938e-17,-1.1446e-14,2.07505,193.34,-585.648)">
                <path d="M591.086,259.843C660.362,260.008 729.898,282.637 785.971,323.803C853.502,373.381 901.249,449.048 916.091,532.042C929.343,606.15 916.496,684.82 879.876,750.761C843.216,816.774 783.432,869.645 713.17,897.747C622.413,934.045 516.076,927.489 430.341,879.876C347.999,834.148 286.591,751.927 266.986,659.181C249.087,574.507 265.948,482.689 313.598,409.848C369.244,324.785 464.777,267.48 568.273,260.583C575.858,260.077 583.449,259.837 591.086,259.843ZM590.082,301.51C529.335,301.652 468.796,321.412 419.789,357.39C360.658,400.801 318.881,466.851 305.948,539.822C294.504,604.399 305.684,672.759 337.441,730.15C369.385,787.879 421.653,834.251 482.998,858.896C550.635,886.069 628.754,886.269 696.469,859.547C771.06,830.112 832.171,768.481 860.822,693.181C887.203,623.845 885.612,544.544 856.019,476.098C823.49,400.859 757.837,340.52 678.579,315.172C650.78,306.282 621.623,301.724 592.424,301.515C591.643,301.511 590.863,301.509 590.082,301.51ZM429.851,665.186C419.286,642.499 413.386,617.209 413.386,590.551C413.386,492.771 492.771,413.386 590.551,413.386C688.331,413.386 767.717,492.771 767.717,590.551C767.717,596.095 767.234,603.399 767.139,604.871L767.144,604.878C767.115,605.24 767.117,605.207 767.139,604.871C751.632,586.184 731.215,571.715 707.876,563.45C719.636,583.551 726.378,606.939 726.378,631.89C726.378,706.336 666.356,766.873 592.105,767.707C613.549,749.29 627.141,721.982 627.141,691.526C627.141,636.117 582.156,591.132 526.748,591.132C480.452,591.132 441.433,622.536 429.851,665.186ZM550.37,632.471C582.963,632.471 609.425,658.932 609.425,691.526C609.425,724.119 582.963,750.581 550.37,750.581C517.776,750.581 491.314,724.119 491.314,691.526C491.314,658.932 517.776,632.471 550.37,632.471Z"/>
            </g>
        </g>
    </g>
</svg>
