<?xml version="1.0" encoding="UTF-8" standalone="no"?>
<!DOCTYPE svg PUBLIC "-//W3C//DTD SVG 1.1//EN" "http://www.w3.org/Graphics/SVG/1.1/DTD/svg11.dtd">
<svg width="100%" height="100%" viewBox="0 0 662 662" version="1.1" xmlns="http://www.w3.org/2000/svg" xmlns:xlink="http://www.w3.org/1999/xlink" xml:space="preserve" xmlns:serif="http://www.serif.com/" style="fill-rule:evenodd;clip-rule:evenodd;stroke-linejoin:round;stroke-miterlimit:2;">
    <g transform="matrix(1,0,0,1,-260.004,-259.843)">
        <g transform="matrix(0.481917,-2.34422e-18,2.65826e-15,0.481917,-93.1737,282.234)">
            <g transform="matrix(2.07505,1.00938e-17,-1.1446e-14,2.07505,193.34,-585.648)">
                <path d="M591.086,259.843C660.362,260.008 729.898,282.637 785.971,323.803C853.502,373.381 901.249,449.048 916.091,532.042C929.343,606.15 916.496,684.82 879.876,750.761C843.216,816.774 783.432,869.645 713.17,897.747C622.413,934.045 516.076,927.489 430.341,879.876C347.999,834.148 286.591,751.927 266.986,659.181C249.087,574.507 265.948,482.689 313.598,409.848C369.244,324.785 464.777,267.48 568.273,260.583C575.858,260.077 583.449,259.837 591.086,259.843ZM590.082,301.51C529.335,301.652 468.796,321.412 419.789,357.39C360.658,400.801 318.881,466.851 305.948,539.822C294.504,604.399 305.684,672.759 337.441,730.15C369.385,787.879 421.653,834.251 482.998,858.896C550.635,886.069 628.754,886.269 696.469,859.547C771.06,830.112 832.171,768.481 860.822,693.181C887.203,623.845 885.612,544.544 856.019,476.098C823.49,400.859 757.837,340.52 678.579,315.172C650.78,306.282 621.623,301.724 592.424,301.515C591.643,301.511 590.863,301.509 590.082,301.51ZM648.915,717.716C655.562,704.304 659.3,689.199 659.3,673.228C659.3,617.82 614.315,572.835 558.906,572.835C503.497,572.835 458.512,617.82 458.512,673.228C458.512,690.427 462.846,706.621 470.481,720.777C435.383,688.397 413.386,642.022 413.386,590.551C413.386,492.771 492.771,413.386 590.551,413.386C654.955,413.386 711.378,447.825 742.393,499.276C731.471,497.167 720.194,496.063 708.661,496.063C686.416,496.063 665.123,500.172 645.527,507.706C693.135,528.786 726.378,576.486 726.378,631.89C726.378,706.03 666.848,766.376 592.947,767.694L593.026,767.665C592.206,767.699 591.38,767.717 590.551,767.717C557.958,767.717 531.496,741.255 531.496,708.661C531.496,676.068 557.958,649.606 590.551,649.606C623.145,649.606 649.606,676.068 649.606,708.661C649.606,711.74 649.37,714.764 648.915,717.716Z"/>
            </g>
        </g>
    </g>
</svg>
