<?xml version="1.0" encoding="UTF-8" standalone="no"?>
<!DOCTYPE svg PUBLIC "-//W3C//DTD SVG 1.1//EN" "http://www.w3.org/Graphics/SVG/1.1/DTD/svg11.dtd">
<svg width="100%" height="100%" viewBox="0 0 662 662" version="1.1" xmlns="http://www.w3.org/2000/svg" xmlns:xlink="http://www.w3.org/1999/xlink" xml:space="preserve" xmlns:serif="http://www.serif.com/" style="fill-rule:evenodd;clip-rule:evenodd;stroke-linejoin:round;stroke-miterlimit:2;">
    <g transform="matrix(1,0,0,1,-260.004,-259.843)">
        <g transform="matrix(0.481917,-2.34422e-18,2.65826e-15,0.481917,-93.1737,282.234)">
            <g transform="matrix(2.07505,1.00938e-17,-1.1446e-14,2.07505,193.34,-585.648)">
                <path d="M591.086,259.843C660.362,260.008 729.898,282.637 785.971,323.803C853.502,373.381 901.249,449.048 916.091,532.042C929.343,606.15 916.496,684.82 879.876,750.761C843.216,816.774 783.432,869.645 713.17,897.747C622.413,934.045 516.076,927.489 430.341,879.876C347.999,834.148 286.591,751.927 266.986,659.181C249.087,574.507 265.948,482.689 313.598,409.848C369.244,324.785 464.777,267.48 568.273,260.583C575.858,260.077 583.449,259.837 591.086,259.843ZM590.082,301.51C529.335,301.652 468.796,321.412 419.789,357.39C360.658,400.801 318.881,466.851 305.948,539.822C294.504,604.399 305.684,672.759 337.441,730.15C369.385,787.879 421.653,834.251 482.998,858.896C550.635,886.069 628.754,886.269 696.469,859.547C771.06,830.112 832.171,768.481 860.822,693.181C887.203,623.845 885.612,544.544 856.019,476.098C823.49,400.859 757.837,340.52 678.579,315.172C650.78,306.282 621.623,301.724 592.424,301.515C591.643,301.511 590.863,301.509 590.082,301.51ZM477.467,726.893C438.326,694.385 413.386,645.358 413.386,590.551C413.386,492.771 492.771,413.386 590.551,413.386C653.525,413.386 708.869,446.313 740.29,495.876C730.619,494.238 720.684,493.386 710.551,493.386C686.712,493.386 663.965,498.105 643.196,506.659C692.048,527.241 726.378,575.588 726.378,631.89C726.378,706.854 665.517,767.716 590.551,767.717L586.421,767.574C555.751,765.451 531.496,739.866 531.496,708.661C531.496,676.068 557.958,649.606 590.551,649.606C623.145,649.606 649.606,676.068 649.606,708.661C649.606,711.986 649.331,715.247 648.802,718.422C656.545,704.19 660.945,687.88 660.945,670.551C660.945,615.142 615.96,570.157 560.551,570.157C505.142,570.157 460.157,615.142 460.157,670.551C460.157,691.428 466.544,710.825 477.467,726.893Z"/>
            </g>
        </g>
    </g>
</svg>
