<?xml version="1.0" encoding="UTF-8" standalone="no"?>
<!DOCTYPE svg PUBLIC "-//W3C//DTD SVG 1.1//EN" "http://www.w3.org/Graphics/SVG/1.1/DTD/svg11.dtd">
<svg width="100%" height="100%" viewBox="0 0 662 662" version="1.1" xmlns="http://www.w3.org/2000/svg" xmlns:xlink="http://www.w3.org/1999/xlink" xml:space="preserve" xmlns:serif="http://www.serif.com/" style="fill-rule:evenodd;clip-rule:evenodd;stroke-linejoin:round;stroke-miterlimit:2;">
    <g transform="matrix(1,0,0,1,-260.004,-259.843)">
        <g transform="matrix(0.385257,0,0,-0.385257,62.3183,982.901)">
            <g transform="matrix(2.59567,0,0,-2.59567,-161.757,2551.28)">
                <path d="M591.086,259.843C660.362,260.008 729.898,282.637 785.971,323.803C853.502,373.381 901.249,449.048 916.091,532.042C929.343,606.15 916.496,684.82 879.876,750.761C843.216,816.774 783.432,869.645 713.17,897.747C622.413,934.045 516.076,927.489 430.341,879.876C347.999,834.148 286.591,751.927 266.986,659.181C249.087,574.507 265.948,482.689 313.598,409.848C369.244,324.785 464.777,267.48 568.273,260.583C575.858,260.077 583.449,259.837 591.086,259.843ZM590.082,301.51C529.335,301.652 468.796,321.412 419.789,357.39C360.658,400.801 318.881,466.851 305.948,539.822C294.504,604.399 305.684,672.759 337.441,730.15C369.385,787.879 421.653,834.251 482.998,858.896C550.635,886.069 628.754,886.269 696.469,859.547C771.06,830.112 832.171,768.481 860.822,693.181C887.203,623.845 885.612,544.544 856.019,476.098C823.49,400.859 757.837,340.52 678.579,315.172C650.78,306.282 621.623,301.724 592.424,301.515C591.643,301.511 590.863,301.509 590.082,301.51ZM745.128,678.207C714.611,731.656 657.065,767.717 591.163,767.717C493.382,767.717 413.997,688.331 413.997,590.551C413.997,492.771 493.382,413.386 591.163,413.386C653.372,413.386 708.135,445.518 739.746,494.077C728.22,489.46 715.641,486.919 702.474,486.919C647.065,486.919 602.08,531.904 602.08,587.313C602.08,642.722 647.065,687.707 702.474,687.707C717.721,687.707 732.179,684.3 745.128,678.207ZM702.474,504.748C735.055,504.748 761.507,531.2 761.507,563.781C761.507,596.362 735.055,622.814 702.474,622.814C669.892,622.814 643.44,596.362 643.44,563.781C643.44,531.2 669.892,504.748 702.474,504.748Z"/>
            </g>
        </g>
    </g>
</svg>
