<?xml version="1.0" encoding="UTF-8" standalone="no"?>
<!DOCTYPE svg PUBLIC "-//W3C//DTD SVG 1.1//EN" "http://www.w3.org/Graphics/SVG/1.1/DTD/svg11.dtd">
<svg width="100%" height="100%" viewBox="0 0 662 662" version="1.1" xmlns="http://www.w3.org/2000/svg" xmlns:xlink="http://www.w3.org/1999/xlink" xml:space="preserve" xmlns:serif="http://www.serif.com/" style="fill-rule:evenodd;clip-rule:evenodd;stroke-linejoin:round;stroke-miterlimit:2;">
    <g transform="matrix(1,0,0,1,-260.004,-259.843)">
        <g transform="matrix(1,7.50151e-17,1.05736e-16,1,-3918.87,-456.727)">
            <g transform="matrix(1,-7.50151e-17,-1.05736e-16,1,3918.87,456.727)">
                <path d="M591.086,259.843C660.362,260.008 729.898,282.637 785.971,323.803C853.502,373.381 901.249,449.048 916.091,532.042C929.343,606.15 916.496,684.82 879.876,750.761C843.216,816.774 783.432,869.645 713.17,897.747C622.413,934.045 516.076,927.489 430.341,879.876C347.999,834.148 286.591,751.927 266.986,659.181C249.087,574.507 265.948,482.689 313.598,409.848C369.244,324.785 464.777,267.48 568.273,260.583C575.858,260.077 583.449,259.837 591.086,259.843ZM590.082,301.51C529.335,301.652 468.796,321.412 419.789,357.39C360.658,400.801 318.881,466.851 305.948,539.822C294.504,604.399 305.684,672.759 337.441,730.15C369.385,787.879 421.653,834.251 482.998,858.896C550.635,886.069 628.754,886.269 696.469,859.547C771.06,830.112 832.171,768.481 860.822,693.181C887.203,623.845 885.612,544.544 856.019,476.098C823.49,400.859 757.837,340.52 678.579,315.172C650.78,306.282 621.623,301.724 592.424,301.515C591.643,301.511 590.863,301.509 590.082,301.51ZM649.486,690.945C649.486,723.538 623.025,750 590.431,750C557.838,750 531.376,723.538 531.376,690.945C531.376,658.351 557.838,631.89 590.431,631.89C623.025,631.89 649.486,658.351 649.486,690.945ZM507.271,434.105C496.467,450.116 490.157,469.406 490.157,490.157C490.157,545.566 535.142,590.551 590.551,590.551C645.96,590.551 690.945,545.566 690.945,490.157C690.945,469.492 684.688,450.277 673.965,434.305C729.674,464.174 767.597,522.969 767.597,590.551C767.597,658.209 729.589,717.06 673.778,746.898C684.541,730.906 690.825,711.653 690.825,690.945C690.825,635.536 645.84,590.551 590.431,590.551C535.022,590.551 490.037,635.536 490.037,690.945C490.037,711.653 496.321,730.906 507.084,746.898C451.274,717.06 413.266,658.209 413.266,590.551C413.266,522.818 451.358,463.911 507.271,434.105ZM649.606,490.157C649.606,522.751 623.145,549.213 590.551,549.213C557.958,549.213 531.496,522.751 531.496,490.157C531.496,457.564 557.958,431.102 590.551,431.102C623.145,431.102 649.606,457.564 649.606,490.157Z"/>
            </g>
        </g>
    </g>
</svg>
