<?xml version="1.0" encoding="UTF-8" standalone="no"?>
<!DOCTYPE svg PUBLIC "-//W3C//DTD SVG 1.1//EN" "http://www.w3.org/Graphics/SVG/1.1/DTD/svg11.dtd">
<svg width="100%" height="100%" viewBox="0 0 662 662" version="1.1" xmlns="http://www.w3.org/2000/svg" xmlns:xlink="http://www.w3.org/1999/xlink" xml:space="preserve" xmlns:serif="http://www.serif.com/" style="fill-rule:evenodd;clip-rule:evenodd;stroke-linejoin:round;stroke-miterlimit:2;">
    <g transform="matrix(1,0,0,1,-260.004,-259.843)">
        <g transform="matrix(1,-1.5003e-16,-3.38354e-15,1,-3918.87,-456.727)">
            <g transform="matrix(1,1.5003e-16,3.38354e-15,1,3918.87,456.727)">
                <path d="M591.086,259.843C660.362,260.008 729.898,282.637 785.971,323.803C853.502,373.381 901.249,449.048 916.091,532.042C929.343,606.15 916.496,684.82 879.876,750.761C843.216,816.774 783.432,869.645 713.17,897.747C622.413,934.045 516.076,927.489 430.341,879.876C347.999,834.148 286.591,751.927 266.986,659.181C249.087,574.507 265.948,482.689 313.598,409.848C369.244,324.785 464.777,267.48 568.273,260.583C575.858,260.077 583.449,259.837 591.086,259.843ZM590.082,301.51C529.335,301.652 468.796,321.412 419.789,357.39C360.658,400.801 318.881,466.851 305.948,539.822C294.504,604.399 305.684,672.759 337.441,730.15C369.385,787.879 421.653,834.251 482.998,858.896C550.635,886.069 628.754,886.269 696.469,859.547C771.06,830.112 832.171,768.481 860.822,693.181C887.203,623.845 885.612,544.544 856.019,476.098C823.49,400.859 757.837,340.52 678.579,315.172C650.78,306.282 621.623,301.724 592.424,301.515C591.643,301.511 590.863,301.509 590.082,301.51ZM636.619,520.31C665.238,505.489 685.835,477.298 690.119,444.028C736.944,475.925 767.717,529.673 767.717,590.551C767.717,671.817 712.882,740.376 638.227,761.217C645.381,751.448 649.606,739.403 649.606,726.378C649.606,701.619 634.337,680.398 612.709,671.627C644.537,662.765 669.288,634.419 673.791,602.274C677.486,575.898 667.777,548.06 648.539,529.717C644.866,526.215 640.867,523.071 636.619,520.31ZM568.603,671.543C546.864,680.261 531.496,701.539 531.496,726.378C531.496,739.403 535.722,751.448 542.876,761.217C468.22,740.376 413.386,671.817 413.386,590.551C413.386,529.673 444.158,475.925 490.984,444.028C495.278,477.381 515.968,505.631 544.699,520.422C532.241,528.543 521.898,539.82 515.253,553.183C503.894,576.027 503.744,604.063 514.804,627.002C525.388,648.956 545.688,665.11 568.603,671.543ZM590.933,531.497C605.593,531.637 620.06,537.353 630.771,547.325C644.562,560.163 651.574,579.804 649.083,598.437C645.827,622.796 625.826,643.926 601.724,648.549C575.439,653.591 548.218,639.099 537.169,615.821C529.329,599.304 529.785,579.153 538.291,563.042C548.215,544.243 568.836,531.701 590.17,531.497L590.933,531.497Z"/>
            </g>
        </g>
    </g>
</svg>
