<?xml version="1.0" encoding="UTF-8" standalone="no"?>
<!DOCTYPE svg PUBLIC "-//W3C//DTD SVG 1.1//EN" "http://www.w3.org/Graphics/SVG/1.1/DTD/svg11.dtd">
<svg width="100%" height="100%" viewBox="0 0 662 662" version="1.1" xmlns="http://www.w3.org/2000/svg" xmlns:xlink="http://www.w3.org/1999/xlink" xml:space="preserve" xmlns:serif="http://www.serif.com/" style="fill-rule:evenodd;clip-rule:evenodd;stroke-linejoin:round;stroke-miterlimit:2;">
    <g transform="matrix(1,0,0,1,-260.004,-259.843)">
        <g transform="matrix(0.898794,0.438371,-0.438371,0.898794,-2525.27,-2000.79)">
            <g transform="matrix(0.898794,-0.438371,0.438371,0.898794,3146.79,691.29)">
                <path d="M591.086,259.843C660.362,260.008 729.898,282.637 785.971,323.803C853.502,373.381 901.249,449.048 916.091,532.042C929.343,606.15 916.496,684.82 879.876,750.761C843.216,816.774 783.432,869.645 713.17,897.747C622.413,934.045 516.076,927.489 430.341,879.876C347.999,834.148 286.591,751.927 266.986,659.181C249.087,574.507 265.948,482.689 313.598,409.848C369.244,324.785 464.777,267.48 568.273,260.583C575.858,260.077 583.449,259.837 591.086,259.843ZM590.082,301.51C529.335,301.652 468.796,321.412 419.789,357.39C360.658,400.801 318.881,466.851 305.948,539.822C294.504,604.399 305.684,672.759 337.441,730.15C369.385,787.879 421.653,834.251 482.998,858.896C550.635,886.069 628.754,886.269 696.469,859.547C771.06,830.112 832.171,768.481 860.822,693.181C887.203,623.845 885.612,544.544 856.019,476.098C823.49,400.859 757.837,340.52 678.579,315.172C650.78,306.282 621.623,301.724 592.424,301.515C591.643,301.511 590.863,301.509 590.082,301.51ZM426.518,657.56C400.404,593.488 413.341,517.178 465.317,465.236C520.331,410.257 602.617,399.033 668.767,431.549C659.738,432.197 650.87,434.419 642.657,438.162C610.141,452.982 592.478,491.054 600.434,524.605C607.117,552.787 631.317,575.899 659.624,581.383C691.548,587.569 724.941,571.375 740.241,543.943C745.655,534.234 748.749,523.301 749.488,512.203C782.104,578.415 770.865,660.823 715.786,715.866C663.74,767.879 587.285,780.731 523.176,754.434C538.802,751.807 553.632,744.995 565.343,734.423C592.804,709.632 600.374,667.596 584.651,635.242C571.018,607.189 540.823,588.249 509.577,587.96C491.612,587.902 474.452,593.399 460.202,603.587C442.166,616.481 430.386,636.374 426.518,657.56ZM508.712,612.96C486.627,613.15 465.076,626.765 455.635,646.787C447.674,663.669 448.338,684.389 457.439,700.732C467.619,719.013 488.083,731.039 509.029,731.046C529.953,731.053 550.437,719.056 560.638,700.765C569.743,684.44 570.435,663.724 562.477,646.821C553.074,626.847 531.922,613.168 509.421,612.96C509.185,612.959 508.949,612.959 508.712,612.96Z"/>
            </g>
        </g>
    </g>
</svg>
