<?xml version="1.0" encoding="UTF-8" standalone="no"?>
<!DOCTYPE svg PUBLIC "-//W3C//DTD SVG 1.1//EN" "http://www.w3.org/Graphics/SVG/1.1/DTD/svg11.dtd">
<svg width="100%" height="100%" viewBox="0 0 662 662" version="1.1" xmlns="http://www.w3.org/2000/svg" xmlns:xlink="http://www.w3.org/1999/xlink" xml:space="preserve" xmlns:serif="http://www.serif.com/" style="fill-rule:evenodd;clip-rule:evenodd;stroke-linejoin:round;stroke-miterlimit:2;">
    <g transform="matrix(1,0,0,1,-260.004,-259.843)">
        <g transform="matrix(0.707107,0.707107,-0.707107,0.707107,-1857.59,-3338.54)">
            <g transform="matrix(0.707107,-0.707107,0.707107,0.707107,3674.22,1047.19)">
                <path d="M591.086,259.843C660.362,260.008 729.898,282.637 785.971,323.803C853.502,373.381 901.249,449.048 916.091,532.042C929.343,606.15 916.496,684.82 879.876,750.761C843.216,816.774 783.432,869.645 713.17,897.747C622.413,934.045 516.076,927.489 430.341,879.876C347.999,834.148 286.591,751.927 266.986,659.181C249.087,574.507 265.948,482.689 313.598,409.848C369.244,324.785 464.777,267.48 568.273,260.583C575.858,260.077 583.449,259.837 591.086,259.843ZM590.082,301.51C529.335,301.652 468.796,321.412 419.789,357.39C360.658,400.801 318.881,466.851 305.948,539.822C294.504,604.399 305.684,672.759 337.441,730.15C369.385,787.879 421.653,834.251 482.998,858.896C550.635,886.069 628.754,886.269 696.469,859.547C771.06,830.112 832.171,768.481 860.822,693.181C887.203,623.845 885.612,544.544 856.019,476.098C823.49,400.859 757.837,340.52 678.579,315.172C650.78,306.282 621.623,301.724 592.424,301.515C591.643,301.511 590.863,301.509 590.082,301.51ZM577.271,690.139C607.184,694.093 638.542,684.588 661.505,661.625C684.468,638.662 693.973,607.304 690.019,577.391C715.874,580.809 742.808,574.172 764.468,557.479C774.974,613.108 758.72,672.812 715.706,715.826C672.692,758.84 612.988,775.094 557.359,764.589C574.052,742.928 580.689,715.994 577.271,690.139ZM632.274,632.394C609.227,655.441 571.805,655.441 548.758,632.394C525.711,609.347 525.711,571.925 548.758,548.878C571.805,525.831 609.227,525.831 632.274,548.878C655.321,571.925 655.321,609.347 632.274,632.394ZM416.443,623.885C405.837,568.182 422.075,508.358 465.156,465.276C508.238,422.195 568.062,405.957 623.765,416.563C607.005,438.244 600.337,465.231 603.761,491.133C573.848,487.179 542.49,496.684 519.527,519.647C496.564,542.61 487.059,573.968 491.013,603.881C465.111,600.457 438.124,607.125 416.443,623.885Z"/>
            </g>
        </g>
    </g>
</svg>
